<?xml version="1.0" encoding="UTF-8"?>
<!DOCTYPE svg PUBLIC "-//W3C//DTD SVG 1.1//EN" "http://www.w3.org/Graphics/SVG/1.1/DTD/svg11.dtd">
<svg width="143mm" height="109mm" viewBox="0 0 14300 10900" version="1.1" xmlns="http://www.w3.org/2000/svg" stroke-width="28.222" stroke-linejoin="round" xml:space="preserve">
 <path fill="rgb(255,255,255)" stroke="none" d="M 7148,10880 L 5,10880 5,0 14291,0 14291,10880 7148,10880 Z"/>
 <path fill="none" stroke="rgb(0,0,0)" stroke-linejoin="round" d="M 8011,8342 L 2351,8342 2351,438 13672,438 13672,8342 8011,8342 Z"/>
 <path fill="none" stroke="rgb(0,0,0)" stroke-linejoin="round" d="M 2351,8491 L 2351,8341"/>
 <path fill="none" stroke="rgb(0,0,0)" stroke-linejoin="round" d="M 2351,8491 L 2351,8341"/>
 <path fill="none" stroke="rgb(0,0,0)" stroke-linejoin="round" d="M 3609,8491 L 3609,8341"/>
 <path fill="none" stroke="rgb(0,0,0)" stroke-linejoin="round" d="M 3609,8491 L 3609,8341"/>
 <path fill="none" stroke="rgb(0,0,0)" stroke-linejoin="round" d="M 4867,8491 L 4867,8341"/>
 <path fill="none" stroke="rgb(0,0,0)" stroke-linejoin="round" d="M 4867,8491 L 4867,8341"/>
 <path fill="none" stroke="rgb(0,0,0)" stroke-linejoin="round" d="M 6125,8491 L 6125,8341"/>
 <path fill="none" stroke="rgb(0,0,0)" stroke-linejoin="round" d="M 6125,8491 L 6125,8341"/>
 <path fill="none" stroke="rgb(0,0,0)" stroke-linejoin="round" d="M 7382,8491 L 7382,8341"/>
 <path fill="none" stroke="rgb(0,0,0)" stroke-linejoin="round" d="M 7382,8491 L 7382,8341"/>
 <path fill="none" stroke="rgb(0,0,0)" stroke-linejoin="round" d="M 8640,8491 L 8640,8341"/>
 <path fill="none" stroke="rgb(0,0,0)" stroke-linejoin="round" d="M 8640,8491 L 8640,8341"/>
 <path fill="none" stroke="rgb(0,0,0)" stroke-linejoin="round" d="M 9898,8491 L 9898,8341"/>
 <path fill="none" stroke="rgb(0,0,0)" stroke-linejoin="round" d="M 9898,8491 L 9898,8341"/>
 <path fill="none" stroke="rgb(0,0,0)" stroke-linejoin="round" d="M 11156,8491 L 11156,8341"/>
 <path fill="none" stroke="rgb(0,0,0)" stroke-linejoin="round" d="M 11156,8491 L 11156,8341"/>
 <path fill="none" stroke="rgb(0,0,0)" stroke-linejoin="round" d="M 12414,8491 L 12414,8341"/>
 <path fill="none" stroke="rgb(0,0,0)" stroke-linejoin="round" d="M 12414,8491 L 12414,8341"/>
 <path fill="none" stroke="rgb(0,0,0)" stroke-linejoin="round" d="M 13672,8491 L 13672,8341"/>
 <path fill="none" stroke="rgb(0,0,0)" stroke-linejoin="round" d="M 13672,8491 L 13672,8341"/>
 <path fill="none" stroke="rgb(0,0,0)" stroke-linejoin="round" d="M 2351,8341 L 13672,8341"/>
 <path fill="none" stroke="rgb(0,0,0)" stroke-linejoin="round" d="M 2201,8341 L 2351,8341"/>
 <path fill="none" stroke="rgb(0,0,0)" stroke-linejoin="round" d="M 2201,8341 L 2351,8341"/>
 <path fill="none" stroke="rgb(0,0,0)" stroke-linejoin="round" d="M 2201,6760 L 2351,6760"/>
 <path fill="none" stroke="rgb(0,0,0)" stroke-linejoin="round" d="M 2201,6760 L 2351,6760"/>
 <path fill="none" stroke="rgb(0,0,0)" stroke-linejoin="round" d="M 2201,5180 L 2351,5180"/>
 <path fill="none" stroke="rgb(0,0,0)" stroke-linejoin="round" d="M 2201,5180 L 2351,5180"/>
 <path fill="none" stroke="rgb(0,0,0)" stroke-linejoin="round" d="M 2201,3599 L 2351,3599"/>
 <path fill="none" stroke="rgb(0,0,0)" stroke-linejoin="round" d="M 2201,3599 L 2351,3599"/>
 <path fill="none" stroke="rgb(0,0,0)" stroke-linejoin="round" d="M 2201,2018 L 2351,2018"/>
 <path fill="none" stroke="rgb(0,0,0)" stroke-linejoin="round" d="M 2201,2018 L 2351,2018"/>
 <path fill="none" stroke="rgb(0,0,0)" stroke-linejoin="round" d="M 2201,437 L 2351,437"/>
 <path fill="none" stroke="rgb(0,0,0)" stroke-linejoin="round" d="M 2201,437 L 2351,437"/>
 <path fill="none" stroke="rgb(0,0,0)" stroke-linejoin="round" d="M 2351,8341 L 2351,437"/>
 <path fill="none" stroke="rgb(0,0,0)" stroke-width="40" stroke-linejoin="round" d="M 2351,7425 L 2363,7425 2376,7424 2388,7425 2401,7422 2413,7419 2426,7417 2439,7410 2451,7396 2464,7377 2476,7355 2489,7327 2501,7296 2514,7263 2527,7228 2539,7189 2552,7148 2564,7106 2577,7062 2590,7013 2602,6967 2615,6918 2627,6869 2640,6819 2652,6768 2665,6718 2678,6670 2690,6621 2703,6574 2715,6526 2728,6482 2740,6435 2753,6390 2766,6345 2778,6303 2791,6263 2803,6220 2816,6181 2829,6141 2841,6101 2854,6061 2866,6021 2879,5979 2891,5946 2904,5912 2917,5878 2929,5842 2942,5808 2954,5774 2967,5742 2980,5708 2992,5675 3005,5639 3017,5610 3030,5581 3042,5549 3055,5517 3068,5490 3080,5462 3093,5436 3105,5409 3118,5382 3130,5354 3143,5332 3156,5310 3168,5286 3181,5260 3193,5237 3206,5214 3219,5190 3231,5164 3244,5137 3256,5117 3269,5098 3281,5075 3294,5058 3307,5036 3319,5017 3332,5001 3344,4979 3357,4960 3369,4940 3382,4920 3395,4907 3407,4886 3420,4866 3432,4847 3445,4829 3458,4811 3470,4793 3483,4776 3495,4757 3508,4739 3520,4724 3533,4704 3546,4691 3558,4670 3571,4657 3583,4640 3596,4619 3608,4605 3621,4586 3634,4573 3646,4556 3659,4545 3671,4526 3684,4512 3697,4497 3709,4485 3722,4472 3734,4457 3747,4445 3759,4430 3772,4421 3785,4405 3797,4394 3810,4378 3822,4365 3835,4355 3848,4338 3860,4329 3873,4313 3885,4302 3898,4290 3910,4275 3923,4265 3936,4249 3948,4240 3961,4232 3973,4217 3986,4208 3998,4195 4011,4183 4024,4175 4036,4161 4049,4151 4061,4141 4074,4128 4087,4119 4099,4111 4112,4097 4124,4087 4137,4079 4149,4067 4162,4059 4175,4050 4187,4036 4200,4028 4212,4021 4225,4012 4237,4001 4250,3992 4263,3982 4275,3971 4288,3965 4300,3957 4313,3943 4326,3936 4338,3930 4351,3919 4363,3909 4376,3896 4388,3891 4401,3882 4414,3875 4426,3870 4439,3859 4451,3849 4464,3844 4477,3837 4489,3826 4502,3816 4514,3811 4527,3802 4539,3792 4552,3784 4565,3776 4577,3768 4590,3758 4602,3753 4615,3746 4627,3733 4640,3725 4653,3721 4665,3714 4678,3702 4690,3694 4703,3690 4716,3685 4728,3675 4741,3666 4753,3660 4766,3655 4778,3645 4791,3635 4804,3631 4816,3623 4829,3617 4841,3607 4854,3601 4867,3596 4879,3587 4892,3579 4904,3573 4917,3569 4929,3562 4942,3550 4955,3544 4967,3540 4980,3536 4992,3530 5005,3519 5017,3511 5030,3508 5043,3503 5055,3494 5068,3485 5080,3480 5093,3476 5106,3471 5118,3460 5131,3453 5143,3449 5156,3446 5168,3440 5181,3428 5194,3422 5206,3418 5219,3415 5231,3408 5244,3397 5256,3391 5269,3387 5282,3383 5294,3376 5307,3364 5319,3360 5332,3355 5345,3353 5357,3345 5370,3334 5382,3329 5395,3326 5407,3321 5420,3314 5433,3302 5445,3298 5458,3295 5470,3291 5483,3282 5496,3272 5508,3267 5521,3265 5533,3260 5546,3252 5558,3241 5571,3237 5584,3234 5596,3230 5609,3223 5621,3213 5634,3208 5646,3204 5659,3201 5672,3191 5684,3184 5697,3178 5709,3173 5722,3167 5735,3156 5747,3148 5760,3145 5772,3143 5785,3142 5797,3138 5810,3127 5823,3120 5835,3116 5848,3113 5860,3108 5873,3098 5885,3092 5898,3087 5911,3084 5923,3082 5936,3074 5948,3066 5961,3059 5974,3055 5986,3053 5999,3047 6011,3043 6024,3035 6036,3029 6049,3025 6062,3020 6074,3017 6087,3011 6099,3004 6112,2999 6125,2993 6137,2990 6150,2985 6162,2980 6175,2971 6187,2965 6200,2963 6213,2960 6225,2956 6238,2950 6250,2938 6263,2935 6275,2932 6288,2930 6301,2927 6313,2920 6326,2913 6338,2908 6351,2904 6364,2902 6376,2897 6389,2892 6401,2885 6414,2878 6426,2874 6439,2871 6452,2869 6464,2865 6477,2858 6489,2850 6502,2844 6514,2842 6527,2839 6540,2834 6552,2826 6565,2818 6577,2814 6590,2811 6603,2809 6615,2805 6628,2798 6640,2792 6653,2787 6665,2783 6678,2780 6691,2779 6703,2776 6716,2768 6728,2763 6741,2757 6754,2751 6766,2749 6779,2746 6791,2741 6804,2737 6816,2727 6829,2723 6842,2720 6854,2718 6867,2716 6879,2710 6892,2701 6904,2695 6917,2691 6930,2688 6942,2686 6955,2685 6967,2678 6980,2670 6993,2662 7005,2660 7018,2659 7030,2656 7043,2652 7055,2644 7068,2637 7081,2633 7093,2630 7106,2628 7118,2624 7131,2620 7143,2618 7155,2609 7168,2605 7180,2599 7193,2597 7205,2596 7218,2592 7231,2589 7243,2579 7256,2573 7268,2570 7281,2568 7293,2567 7306,2562 7319,2559 7331,2553 7344,2548 7356,2543 7369,2538 7382,2536 7394,2535 7407,2530 7419,2524 7432,2516 7444,2512 7457,2509 7470,2508 7482,2505 7495,2498 7507,2491 7520,2488 7532,2484 7545,2480 7558,2475 7570,2475 7583,2473 7595,2469 7608,2462 7621,2454 7633,2451 7646,2448 7658,2446 7671,2442 7683,2436 7696,2432 7709,2427 7721,2422 7734,2419 7746,2415 7759,2413 7771,2409 7784,2403 7797,2397 7809,2391 7822,2387 7834,2386 7847,2385 7860,2383 7872,2375 7885,2373 7897,2366 7910,2361 7922,2357 7935,2354 7948,2352 7960,2349 7973,2344 7985,2337 7998,2331 8011,2328 8023,2326 8036,2323 8048,2321 8061,2315 8073,2308 8086,2303 8099,2299 8111,2297 8124,2294 8136,2293 8149,2290 8161,2287 8174,2280 8187,2273 8199,2269 8212,2266 8224,2265 8237,2262 8250,2257 8262,2254 8275,2250 8287,2243 8300,2238 8312,2235 8325,2234 8338,2231 8350,2228 8363,2223 8375,2217 8388,2213 8400,2208 8413,2205 8426,2203 8438,2202 8451,2199 8463,2194 8476,2187 8489,2183 8501,2178 8514,2176 8526,2175 8539,2172 8551,2169 8564,2164 8577,2161 8589,2154 8602,2148 8614,2145 8627,2143 8640,2141 8652,2138 8665,2133 8677,2128 8690,2121 8702,2118 8715,2115 8728,2114 8740,2113 8753,2110 8765,2107 8778,2102 8790,2094 8803,2090 8816,2086 8828,2084 8841,2083 8853,2082 8866,2079 8879,2075 8891,2074 8904,2067 8916,2061 8929,2056 8941,2053 8954,2052 8967,2051 8979,2048 8992,2043 9004,2038 9017,2032 9029,2028 9042,2025 9055,2021 9067,2021 9080,2020 9092,2016 9105,2010 9118,2004 9130,2000 9143,1995 9155,1994 9168,1992 9180,1989 9193,1988 9206,1987 9218,1982 9231,1977 9243,1970 9256,1967 9269,1963 9281,1962 9294,1960 9306,1957 9319,1953 9331,1948 9344,1944 9357,1937 9369,1931 9382,1931 9394,1928 9407,1925 9419,1920 9432,1915 9445,1915 9457,1912 9470,1907 9482,1905 9495,1901 9508,1900 9520,1900 9533,1898 9545,1894 9558,1886 9570,1881 9583,1876 9596,1874 9608,1872 9621,1869 9633,1868 9646,1867 9658,1863 9671,1858 9684,1851 9696,1847 9709,1844 9721,1842 9734,1841 9747,1837 9759,1836 9772,1833 9784,1830 9797,1821 9809,1816 9822,1814 9835,1812 9847,1810 9860,1809 9872,1807 9885,1807 9898,1807 9910,1806 9923,1807 9935,1807 9948,1808 9960,1811 9973,1815 9986,1826 9998,1834 10011,1848 10023,1860 10036,1875 10048,1890 10061,1909 10074,1927 10086,1947 10099,1969 10111,1988 10124,2007 10137,2030 10149,2054 10162,2076 10174,2099 10187,2123 10199,2148 10212,2173 10225,2199 10237,2222 10250,2247 10262,2273 10275,2298 10287,2325 10300,2349 10313,2372 10325,2397 10338,2423 10350,2447 10363,2471 10376,2495 10388,2519 10401,2545 10413,2569 10426,2593 10438,2614 10451,2638 10464,2661 10476,2685 10489,2708 10501,2730 10514,2754 10527,2776 10539,2799 10552,2822 10564,2845 10577,2863 10589,2885 10602,2909 10615,2930 10627,2949 10640,2971 10652,2992 10665,3011 10677,3031 10690,3048 10703,3068 10715,3089 10728,3107 10740,3126 10753,3144 10766,3162 10778,3181 10791,3198 10803,3217 10816,3238 10828,3257 10841,3276 10854,3297 10866,3310 10879,3329 10891,3345 10904,3363 10916,3378 10929,3395 10942,3412 10954,3430 10967,3444 10979,3462 10992,3474 11005,3493 11017,3506 11030,3522 11042,3532 11055,3542 11067,3559 11080,3580 11093,3594 11105,3611 11118,3622 11130,3639 11143,3652 11156,3666 11168,3680 11181,3692 11193,3707 11206,3719 11218,3734 11231,3746 11244,3759 11256,3772 11269,3787 11281,3800 11294,3810 11306,3824 11319,3834 11332,3848 11344,3861 11357,3874 11369,3885 11382,3896 11395,3911 11407,3923 11420,3930 11432,3943 11445,3954 11457,3963 11470,3976 11483,3986 11495,3994 11508,4007 11520,4016 11533,4027 11545,4040 11558,4047 11571,4058 11583,4071 11596,4079 11608,4089 11621,4101 11634,4109 11646,4120 11659,4132 11671,4139 11684,4146 11696,4159 11709,4168 11722,4178 11734,4187 11747,4195 11759,4203 11772,4214 11785,4225 11797,4231 11810,4238 11822,4250 11835,4258 11847,4266 11860,4277 11873,4285 11885,4291 11898,4299 11910,4310 11923,4319 11935,4322 11948,4332 11961,4343 11973,4351 11986,4357 11998,4366 12011,4375 12024,4381 12036,4387 12049,4397 12061,4405 12074,4411 12086,4417 12099,4426 12112,4437 12124,4441 12137,4445 12149,4455 12162,4464 12174,4471 12187,4476 12200,4483 12212,4491 12225,4499 12237,4504 12250,4508 12263,4516 12275,4525 12288,4532 12300,4536 12313,4540 12325,4549 12338,4558 12351,4564 12363,4568 12376,4571 12388,4581 12401,4589 12413,4594 12426,4599 12439,4605 12451,4615 12464,4622 12476,4625 12489,4629 12502,4635 12514,4644 12527,4652 12539,4656 12552,4659 12564,4663 12577,4670 12590,4679 12602,4684 12615,4687 12627,4690 12640,4698 12653,4706 12665,4712 12678,4717 12690,4720 12703,4725 12715,4732 12728,4741 12741,4746 12753,4750 12766,4752 12778,4759 12791,4767 12803,4772 12816,4776 12829,4779 12841,4783 12854,4789 12866,4796 12879,4802 12892,4806 12904,4809 12917,4812 12929,4816 12942,4824 12954,4831 12967,4836 12980,4839 12992,4840 13005,4846 13017,4852 13030,4861 13042,4866 13055,4867 13068,4872 13080,4874 13093,4881 13105,4887 13118,4891 13131,4897 13143,4899 13156,4902 13168,4904 13181,4908 13193,4916 13206,4922 13219,4927 13231,4931 13244,4931 13256,4936 13269,4941 13282,4948 13294,4953 13307,4955 13319,4959 13332,4961 13344,4965 13357,4971 13370,4976 13382,4981 13395,4986 13407,4989 13420,4991 13432,4993 13445,4996 13458,5002 13470,5008 13483,5013 13495,5015 13508,5019 13521,5022 13533,5023 13546,5027 13558,5030 13571,5035 13583,5043 13596,5047 13609,5050 13621,5052 13634,5054 13646,5057 13659,5063 13671,5069"/>
 <path fill="none" stroke="rgb(0,0,0)" stroke-width="40" stroke-linejoin="round" stroke-dasharray="51,127,51,127,254,127,254,127,254,127" d="M 2351,7429 L 2363,7429 2376,7428 2388,7429 2401,7428 2413,7426 2426,7423 2439,7417 2451,7408 2464,7403 2476,7395 2489,7382 2501,7371 2514,7354 2527,7337 2539,7321 2552,7300 2564,7283 2577,7263 2590,7243 2602,7221 2615,7201 2627,7178 2640,7156 2652,7133 2665,7110 2678,7086 2690,7062 2703,7042 2715,7020 2728,6997 2740,6974 2753,6954 2766,6931 2778,6909 2791,6892 2803,6871 2816,6849 2829,6831 2841,6810 2854,6790 2866,6771 2879,6745 2891,6729 2904,6712 2917,6691 2929,6674 2942,6655 2954,6635 2967,6619 2980,6599 2992,6582 3005,6561 3017,6543 3030,6526 3042,6507 3055,6489 3068,6471 3080,6454 3093,6439 3105,6419 3118,6405 3130,6384 3143,6373 3156,6355 3168,6341 3181,6322 3193,6309 3206,6292 3219,6271 3231,6255 3244,6233 3256,6221 3269,6204 3281,6188 3294,6171 3307,6158 3319,6141 3332,6125 3344,6108 3357,6093 3369,6075 3382,6058 3395,6045 3407,6025 3420,6011 3432,5991 3445,5979 3458,5959 3470,5945 3483,5929 3495,5912 3508,5896 3520,5879 3533,5865 3546,5848 3558,5831 3571,5816 3583,5802 3596,5781 3608,5766 3621,5746 3634,5735 3646,5720 3659,5708 3671,5688 3684,5673 3697,5656 3709,5641 3722,5626 3734,5615 3747,5596 3759,5585 3772,5569 3785,5555 3797,5537 3810,5523 3822,5506 3835,5494 3848,5477 3860,5465 3873,5448 3885,5438 3898,5423 3910,5409 3923,5396 3936,5380 3948,5366 3961,5352 3973,5342 3986,5325 3998,5311 4011,5296 4024,5285 4036,5270 4049,5257 4061,5243 4074,5229 4087,5218 4099,5202 4112,5192 4124,5173 4137,5163 4149,5149 4162,5136 4175,5124 4187,5108 4200,5098 4212,5084 4225,5074 4237,5060 4250,5045 4263,5033 4275,5018 4288,5010 4300,4994 4313,4983 4326,4971 4338,4958 4351,4950 4363,4935 4376,4918 4388,4910 4401,4897 4414,4889 4426,4876 4439,4862 4451,4853 4464,4839 4477,4829 4489,4817 4502,4802 4514,4794 4527,4779 4539,4770 4552,4759 4565,4744 4577,4737 4590,4722 4602,4711 4615,4700 4627,4687 4640,4678 4653,4667 4665,4654 4678,4646 4690,4631 4703,4621 4716,4613 4728,4600 4741,4589 4753,4578 4766,4566 4778,4558 4791,4547 4804,4535 4816,4525 4829,4515 4841,4502 4854,4496 4867,4486 4879,4473 4892,4465 4904,4455 4917,4443 4929,4436 4942,4425 4955,4413 4967,4406 4980,4398 4992,4385 5005,4375 5017,4369 5030,4357 5043,4348 5055,4337 5068,4326 5080,4318 5093,4312 5106,4300 5118,4288 5131,4281 5143,4272 5156,4261 5168,4254 5181,4243 5194,4231 5206,4224 5219,4217 5231,4206 5244,4195 5256,4189 5269,4179 5282,4168 5294,4162 5307,4152 5319,4141 5332,4133 5345,4127 5357,4116 5370,4104 5382,4100 5395,4093 5407,4081 5420,4073 5433,4062 5445,4054 5458,4046 5470,4039 5483,4030 5496,4017 5508,4011 5521,4006 5533,3998 5546,3987 5558,3979 5571,3974 5584,3965 5596,3955 5609,3950 5621,3941 5634,3931 5646,3923 5659,3918 5672,3912 5684,3899 5697,3891 5709,3884 5722,3874 5735,3864 5747,3857 5760,3853 5772,3846 5785,3838 5797,3831 5810,3823 5823,3818 5835,3809 5848,3801 5860,3796 5873,3788 5885,3778 5898,3771 5911,3767 5923,3762 5936,3750 5948,3741 5961,3736 5974,3732 5986,3722 5999,3711 6011,3707 6024,3702 6036,3694 6049,3684 6062,3676 6074,3672 6087,3662 6099,3654 6112,3649 6125,3643 6137,3636 6150,3627 6162,3619 6175,3615 6187,3608 6200,3602 6213,3592 6225,3586 6238,3583 6250,3569 6263,3564 6275,3558 6288,3555 6301,3550 6313,3539 6326,3531 6338,3525 6351,3521 6364,3515 6376,3506 6389,3498 6401,3494 6414,3490 6426,3483 6439,3473 6452,3467 6464,3463 6477,3459 6489,3449 6502,3440 6514,3434 6527,3432 6540,3427 6552,3419 6565,3408 6577,3403 6590,3401 6603,3394 6615,3386 6628,3378 6640,3373 6653,3369 6665,3362 6678,3354 6691,3347 6703,3343 6716,3337 6728,3333 6741,3324 6754,3316 6766,3313 6779,3307 6791,3298 6804,3293 6816,3284 6829,3282 6842,3278 6854,3268 6867,3260 6879,3254 6892,3248 6904,3242 6917,3231 6930,3225 6942,3221 6955,3216 6967,3210 6980,3201 6993,3193 7005,3190 7018,3187 7030,3181 7043,3172 7055,3162 7068,3160 7081,3156 7093,3150 7106,3143 7118,3134 7131,3131 7143,3127 7155,3122 7168,3117 7180,3105 7193,3101 7205,3097 7218,3092 7231,3083 7243,3074 7256,3070 7268,3068 7281,3063 7293,3054 7306,3045 7319,3041 7331,3037 7344,3035 7356,3027 7369,3018 7382,3013 7394,3010 7407,3007 7419,3004 7432,2993 7444,2987 7457,2982 7470,2978 7482,2976 7495,2967 7507,2960 7520,2954 7532,2949 7545,2947 7558,2940 7570,2934 7583,2929 7595,2922 7608,2918 7621,2915 7633,2911 7646,2905 7658,2897 7671,2891 7683,2886 7696,2884 7709,2878 7721,2871 7734,2864 7746,2858 7759,2855 7771,2853 7784,2847 7797,2841 7809,2832 7822,2828 7834,2826 7847,2823 7860,2818 7872,2809 7885,2803 7897,2799 7910,2796 7922,2792 7935,2786 7948,2779 7960,2773 7973,2768 7985,2765 7998,2761 8011,2756 8023,2750 8036,2743 8048,2738 8061,2734 8073,2732 8086,2728 8099,2721 8111,2713 8124,2707 8136,2705 8149,2704 8161,2699 8174,2693 8187,2685 8199,2678 8212,2676 8224,2674 8237,2671 8250,2663 8262,2657 8275,2651 8287,2647 8300,2645 8312,2641 8325,2639 8338,2632 8350,2624 8363,2619 8375,2615 8388,2613 8400,2611 8413,2607 8426,2601 8438,2592 8451,2588 8463,2584 8476,2582 8489,2578 8501,2571 8514,2564 8526,2558 8539,2555 8551,2553 8564,2550 8577,2546 8589,2541 8602,2534 8614,2529 8627,2524 8640,2523 8652,2521 8665,2519 8677,2514 8690,2507 8702,2501 8715,2496 8728,2493 8740,2491 8753,2486 8765,2482 8778,2477 8790,2471 8803,2466 8816,2463 8828,2461 8841,2460 8853,2456 8866,2447 8879,2441 8891,2439 8904,2434 8916,2432 8929,2429 8941,2424 8954,2421 8967,2416 8979,2410 8992,2404 9004,2401 9017,2400 9029,2398 9042,2393 9055,2386 9067,2380 9080,2376 9092,2373 9105,2371 9118,2367 9130,2363 9143,2359 9155,2354 9168,2349 9180,2343 9193,2341 9206,2340 9218,2337 9231,2334 9243,2326 9256,2321 9269,2317 9281,2313 9294,2311 9306,2309 9319,2304 9331,2302 9344,2296 9357,2287 9369,2281 9382,2279 9394,2277 9407,2274 9419,2268 9432,2263 9445,2262 9457,2257 9470,2254 9482,2252 9495,2248 9508,2247 9520,2244 9533,2239 9545,2235 9558,2228 9570,2224 9583,2221 9596,2219 9608,2218 9621,2214 9633,2210 9646,2206 9658,2201 9671,2195 9684,2190 9696,2189 9709,2188 9721,2185 9734,2184 9747,2175 9759,2172 9772,2167 9784,2163 9797,2160 9809,2158 9822,2156 9835,2151 9847,2149 9860,2147 9872,2142 9885,2141 9898,2140 9910,2140 9923,2140 9935,2140 9948,2142 9960,2144 9973,2148 9986,2153 9998,2155 10011,2160 10023,2169 10036,2179 10048,2186 10061,2194 10074,2206 10086,2215 10099,2229 10111,2241 10124,2252 10137,2268 10149,2282 10162,2296 10174,2308 10187,2324 10199,2338 10212,2356 10225,2370 10237,2387 10250,2403 10262,2419 10275,2435 10287,2451 10300,2468 10313,2483 10325,2499 10338,2515 10350,2533 10363,2548 10376,2565 10388,2580 10401,2598 10413,2612 10426,2629 10438,2646 10451,2662 10464,2679 10476,2694 10489,2713 10501,2726 10514,2745 10527,2761 10539,2779 10552,2792 10564,2808 10577,2824 10589,2841 10602,2857 10615,2873 10627,2887 10640,2902 10652,2918 10665,2934 10677,2949 10690,2965 10703,2979 10715,2994 10728,3008 10740,3022 10753,3033 10766,3049 10778,3061 10791,3077 10803,3089 10816,3109 10828,3123 10841,3139 10854,3153 10866,3164 10879,3179 10891,3196 10904,3210 10916,3222 10929,3235 10942,3249 10954,3264 10967,3276 10979,3291 10992,3302 11005,3315 11017,3329 11030,3338 11042,3346 11055,3356 11067,3377 11080,3390 11093,3402 11105,3417 11118,3425 11130,3441 11143,3453 11156,3464 11168,3477 11181,3486 11193,3499 11206,3511 11218,3520 11231,3534 11244,3544 11256,3555 11269,3569 11281,3579 11294,3591 11306,3602 11319,3611 11332,3624 11344,3635 11357,3644 11369,3656 11382,3666 11395,3676 11407,3690 11420,3699 11432,3707 11445,3722 11457,3730 11470,3740 11483,3752 11495,3758 11508,3770 11520,3782 11533,3790 11545,3800 11558,3809 11571,3819 11583,3827 11596,3842 11608,3850 11621,3857 11634,3869 11646,3879 11659,3885 11671,3897 11684,3906 11696,3913 11709,3921 11722,3933 11734,3941 11747,3948 11759,3961 11772,3970 11785,3975 11797,3983 11810,3992 11822,4001 11835,4006 11847,4016 11860,4027 11873,4032 11885,4040 11898,4051 11910,4060 11923,4066 11935,4074 11948,4085 11961,4093 11973,4100 11986,4111 11998,4117 12011,4124 12024,4130 12036,4140 12049,4150 12061,4154 12074,4161 12086,4170 12099,4180 12112,4186 12124,4191 12137,4202 12149,4210 12162,4216 12174,4220 12187,4228 12200,4239 12212,4245 12225,4250 12237,4260 12250,4267 12263,4274 12275,4278 12288,4284 12300,4293 12313,4300 12325,4307 12338,4312 12351,4321 12363,4329 12376,4335 12388,4338 12401,4345 12413,4353 12426,4361 12439,4367 12451,4370 12464,4376 12476,4386 12489,4393 12502,4397 12514,4401 12527,4409 12539,4418 12552,4425 12564,4428 12577,4432 12590,4437 12602,4445 12615,4454 12627,4457 12640,4461 12653,4465 12665,4474 12678,4482 12690,4486 12703,4490 12715,4493 12728,4498 12741,4507 12753,4514 12766,4518 12778,4521 12791,4526 12803,4531 12816,4541 12829,4547 12841,4551 12854,4554 12866,4558 12879,4564 12892,4573 12904,4579 12917,4582 12929,4584 12942,4590 12954,4598 12967,4605 12980,4609 12992,4612 13005,4614 13017,4620 13030,4628 13042,4636 13055,4639 13068,4642 13080,4644 13093,4650 13105,4657 13118,4662 13131,4668 13143,4672 13156,4675 13168,4677 13181,4681 13193,4689 13206,4697 13219,4701 13231,4703 13244,4705 13256,4709 13269,4719 13282,4726 13294,4730 13307,4731 13319,4734 13332,4737 13344,4743 13357,4750 13370,4755 13382,4760 13395,4763 13407,4765 13420,4767 13432,4771 13445,4779 13458,4786 13470,4790 13483,4793 13495,4794 13508,4797 13521,4802 13533,4807 13546,4814 13558,4818 13571,4823 13583,4824 13596,4827 13609,4832 13621,4835 13634,4843 13646,4848 13659,4852 13671,4854"/>
 <text class="TextShape"><tspan class="TextParagraph" font-family="Times New Roman, serif" font-size="423px" font-weight="400"><tspan class="TextPosition" x="2240" y="8950"><tspan fill="rgb(0,0,0)" stroke="none">0</tspan></tspan></tspan></text>
 <text class="TextShape"><tspan class="TextParagraph" font-family="Times New Roman, serif" font-size="423px" font-weight="400"><tspan class="TextPosition" x="3388" y="8950"><tspan fill="rgb(0,0,0)" stroke="none">20</tspan></tspan></tspan></text>
 <text class="TextShape"><tspan class="TextParagraph" font-family="Times New Roman, serif" font-size="423px" font-weight="400"><tspan class="TextPosition" x="4646" y="8950"><tspan fill="rgb(0,0,0)" stroke="none">40</tspan></tspan></tspan></text>
 <text class="TextShape"><tspan class="TextParagraph" font-family="Times New Roman, serif" font-size="423px" font-weight="400"><tspan class="TextPosition" x="5904" y="8950"><tspan fill="rgb(0,0,0)" stroke="none">60</tspan></tspan></tspan></text>
 <text class="TextShape"><tspan class="TextParagraph" font-family="Times New Roman, serif" font-size="423px" font-weight="400"><tspan class="TextPosition" x="7162" y="8950"><tspan fill="rgb(0,0,0)" stroke="none">80</tspan></tspan></tspan></text>
 <text class="TextShape"><tspan class="TextParagraph" font-family="Times New Roman, serif" font-size="423px" font-weight="400"><tspan class="TextPosition" x="8309" y="8950"><tspan fill="rgb(0,0,0)" stroke="none">100</tspan></tspan></tspan></text>
 <text class="TextShape"><tspan class="TextParagraph" font-family="Times New Roman, serif" font-size="423px" font-weight="400"><tspan class="TextPosition" x="9567" y="8950"><tspan fill="rgb(0,0,0)" stroke="none">120</tspan></tspan></tspan></text>
 <text class="TextShape"><tspan class="TextParagraph" font-family="Times New Roman, serif" font-size="423px" font-weight="400"><tspan class="TextPosition" x="10825" y="8950"><tspan fill="rgb(0,0,0)" stroke="none">140</tspan></tspan></tspan></text>
 <text class="TextShape"><tspan class="TextParagraph" font-family="Times New Roman, serif" font-size="423px" font-weight="400"><tspan class="TextPosition" x="12083" y="8950"><tspan fill="rgb(0,0,0)" stroke="none">160</tspan></tspan></tspan></text>
 <text class="TextShape"><tspan class="TextParagraph" font-family="Times New Roman, serif" font-size="423px" font-weight="400"><tspan class="TextPosition" x="13341" y="8950"><tspan fill="rgb(0,0,0)" stroke="none">180</tspan></tspan></tspan></text>
 <text class="TextShape"><tspan class="TextParagraph" font-family="Times New Roman, serif" font-size="423px" font-weight="400"><tspan class="TextPosition" x="1880" y="8480"><tspan fill="rgb(0,0,0)" stroke="none">0</tspan></tspan></tspan></text>
 <text class="TextShape"><tspan class="TextParagraph" font-family="Times New Roman, serif" font-size="423px" font-weight="400"><tspan class="TextPosition" x="1659" y="6899"><tspan fill="rgb(0,0,0)" stroke="none">50</tspan></tspan></tspan></text>
 <text class="TextShape"><tspan class="TextParagraph" font-family="Times New Roman, serif" font-size="423px" font-weight="400"><tspan class="TextPosition" x="1438" y="5318"><tspan fill="rgb(0,0,0)" stroke="none">100</tspan></tspan></tspan></text>
 <text class="TextShape"><tspan class="TextParagraph" font-family="Times New Roman, serif" font-size="423px" font-weight="400"><tspan class="TextPosition" x="1438" y="3737"><tspan fill="rgb(0,0,0)" stroke="none">150</tspan></tspan></tspan></text>
 <text class="TextShape"><tspan class="TextParagraph" font-family="Times New Roman, serif" font-size="423px" font-weight="400"><tspan class="TextPosition" x="1438" y="2156"><tspan fill="rgb(0,0,0)" stroke="none">200</tspan></tspan></tspan></text>
 <text class="TextShape"><tspan class="TextParagraph" font-family="Times New Roman, serif" font-size="423px" font-weight="400"><tspan class="TextPosition" x="1438" y="575"><tspan fill="rgb(0,0,0)" stroke="none">250</tspan></tspan></tspan></text>
 <path fill="none" stroke="rgb(0,0,0)" stroke-linejoin="round" d="M 7147,10679 L 2102,10679 2102,10036 12192,10036 12192,10679 7147,10679 Z"/>
 <path fill="none" stroke="rgb(0,0,0)" stroke-width="40" stroke-linejoin="round" stroke-dasharray="51,127,51,127,254,127,254,127,254,127" d="M 2241,10357 L 3841,10357"/>
 <path fill="none" stroke="rgb(0,0,0)" stroke-width="40" stroke-linejoin="round" d="M 7286,10357 L 8886,10357"/>
 <text class="TextShape"><tspan class="TextParagraph" font-family="Times New Roman, serif" font-size="423px" font-weight="400"><tspan class="TextPosition" x="3941" y="10495"><tspan fill="rgb(0,0,0)" stroke="none">Thermocouple #1</tspan></tspan></tspan></text>
 <text class="TextShape"><tspan class="TextParagraph" font-family="Times New Roman, serif" font-size="423px" font-weight="400"><tspan class="TextPosition" x="8986" y="10495"><tspan fill="rgb(0,0,0)" stroke="none">Thermocouple #2</tspan></tspan></tspan></text>
 <text class="TextShape"><tspan class="TextParagraph" font-family="Times New Roman, serif" font-size="423px" font-weight="400"><tspan class="TextPosition" x="7003" y="9738"><tspan fill="rgb(0,0,0)" stroke="none">Time [s]</tspan></tspan></tspan></text>
 <text class="TextShape" transform="translate(942,6129) rotate(-90) translate(-942,-6129)"><tspan class="TextParagraph" font-family="Times New Roman, serif" font-size="423px" font-weight="400"><tspan class="TextPosition" x="942" y="6129"><tspan fill="rgb(0,0,0)" stroke="none">Temperature [°C]</tspan></tspan></tspan></text>
</svg>